<svg width="539.6936767578125px" height="117.2px" xmlns="http://www.w3.org/2000/svg" viewBox="-19.846838378906227 16.4 539.6936767578125 117.2" style="background: rgba(0, 0, 0, 0);" preserveAspectRatio="xMidYMid"><defs><filter id="editing-hole" x="-100%" y="-100%" width="300%" height="300%"><feFlood flood-color="#000" result="black"></feFlood><feMorphology operator="dilate" radius="2" in="SourceGraphic" result="erode"></feMorphology><feGaussianBlur in="erode" stdDeviation="4" result="blur"></feGaussianBlur><feOffset in="blur" dx="2" dy="2" result="offset"></feOffset><feComposite operator="atop" in="offset" in2="black" result="merge"></feComposite><feComposite operator="in" in="merge" in2="SourceGraphic" result="inner-shadow"></feComposite></filter></defs><g filter="url(#editing-hole)"><g transform="translate(58.92998027801514, 107.47999954223633)"><path d="M35.07-35.01L35.07-35.01Q36.16-35.01 36.86-34.34L36.86-34.34L36.86-34.34Q37.57-33.66 37.57-32.58L37.57-32.58L37.57-2.50L37.57-2.50Q37.57-1.41 36.86-0.70L36.86-0.70L36.86-0.70Q36.16 0 35.07 0L35.07 0L35.07 0Q33.98 0 33.31-0.70L33.31-0.70L33.31-0.70Q32.64-1.41 32.64-2.50L32.64-2.50L32.64-4.67L32.64-4.67Q30.53-2.30 27.52-0.96L27.52-0.96L27.52-0.96Q24.51 0.38 20.99 0.38L20.99 0.38L20.99 0.38Q16.45 0.38 12.83-1.54L12.83-1.54L12.83-1.54Q9.22-3.46 7.17-7.14L7.17-7.14L7.17-7.14Q5.12-10.82 5.12-15.94L5.12-15.94L5.12-32.58L5.12-32.58Q5.12-33.60 5.82-34.30L5.82-34.30L5.82-34.30Q6.53-35.01 7.55-35.01L7.55-35.01L7.55-35.01Q8.64-35.01 9.34-34.30L9.34-34.30L9.34-34.30Q10.05-33.60 10.05-32.58L10.05-32.58L10.05-15.94L10.05-15.94Q10.05-10.24 13.22-7.26L13.22-7.26L13.22-7.26Q16.38-4.29 21.50-4.29L21.50-4.29L21.50-4.29Q24.64-4.29 27.17-5.50L27.17-5.50L27.17-5.50Q29.70-6.72 31.17-8.86L31.17-8.86L31.17-8.86Q32.64-11.01 32.64-13.63L32.64-13.63L32.64-32.58L32.64-32.58Q32.64-33.66 33.31-34.34L33.31-34.34L33.31-34.34Q33.98-35.01 35.07-35.01L35.07-35.01ZM66.88-35.33L66.88-35.33Q71.87-35.33 75.94-32.99L75.94-32.99L75.94-32.99Q80-30.66 82.34-26.56L82.34-26.56L82.34-26.56Q84.67-22.46 84.67-17.47L84.67-17.47L84.67-17.47Q84.67-12.48 82.40-8.42L82.40-8.42L82.40-8.42Q80.13-4.35 76.19-2.02L76.19-2.02L76.19-2.02Q72.26 0.32 67.39 0.32L67.39 0.32L67.39 0.32Q63.23 0.32 59.78-1.44L59.78-1.44L59.78-1.44Q56.32-3.20 54.08-6.27L54.08-6.27L54.08 12.48L54.08 12.48Q54.08 13.57 53.38 14.27L53.38 14.27L53.38 14.27Q52.67 14.98 51.58 14.98L51.58 14.98L51.58 14.98Q50.50 14.98 49.82 14.27L49.82 14.27L49.82 14.27Q49.15 13.57 49.15 12.48L49.15 12.48L49.15-1.86L49.15-1.86Q49.09-2.05 49.09-2.43L49.09-2.43L49.09-17.47L49.09-17.47Q49.09-22.46 51.42-26.56L51.42-26.56L51.42-26.56Q53.76-30.66 57.82-32.99L57.82-32.99L57.82-32.99Q61.89-35.33 66.88-35.33L66.88-35.33ZM66.88-4.16L66.88-4.16Q70.53-4.16 73.50-5.89L73.50-5.89L73.50-5.89Q76.48-7.62 78.18-10.66L78.18-10.66L78.18-10.66Q79.87-13.70 79.87-17.47L79.87-17.47L79.87-17.47Q79.87-21.25 78.18-24.29L78.18-24.29L78.18-24.29Q76.48-27.33 73.50-29.09L73.50-29.09L73.50-29.09Q70.53-30.85 66.88-30.85L66.88-30.85L66.88-30.85Q63.23-30.85 60.29-29.09L60.29-29.09L60.29-29.09Q57.34-27.33 55.65-24.29L55.65-24.29L55.65-24.29Q53.95-21.25 53.95-17.47L53.95-17.47L53.95-17.47Q53.95-16.38 54.02-15.87L54.02-15.87L54.02-15.87Q54.08-15.74 54.08-15.55L54.08-15.55L54.08-15.55Q54.72-10.56 58.27-7.36L58.27-7.36L58.27-7.36Q61.82-4.16 66.88-4.16L66.88-4.16ZM109.76-4.93L109.76-4.93Q110.78-4.93 111.42-4.22L111.42-4.22L111.42-4.22Q112.06-3.52 112.06-2.43L112.06-2.43L112.06-2.43Q112.06-1.41 111.30-0.70L111.30-0.70L111.30-0.70Q110.53 0 109.38 0L109.38 0L108.03 0L108.03 0Q104.64 0 101.95-1.63L101.95-1.63L101.95-1.63Q99.26-3.26 97.76-6.05L97.76-6.05L97.76-6.05Q96.26-8.83 96.26-12.35L96.26-12.35L96.26-29.44L92.10-29.44L92.10-29.44Q91.07-29.44 90.46-30.05L90.46-30.05L90.46-30.05Q89.86-30.66 89.86-31.55L89.86-31.55L89.86-31.55Q89.86-32.51 90.46-33.12L90.46-33.12L90.46-33.12Q91.07-33.73 92.10-33.73L92.10-33.73L96.26-33.73L96.26-43.65L96.26-43.65Q96.26-44.74 96.93-45.44L96.93-45.44L96.93-45.44Q97.60-46.14 98.69-46.14L98.69-46.14L98.69-46.14Q99.78-46.14 100.48-45.44L100.48-45.44L100.48-45.44Q101.18-44.74 101.18-43.65L101.18-43.65L101.18-33.73L108.42-33.73L108.42-33.73Q109.44-33.73 110.05-33.12L110.05-33.12L110.05-33.12Q110.66-32.51 110.66-31.55L110.66-31.55L110.66-31.55Q110.66-30.66 110.05-30.05L110.05-30.05L110.05-30.05Q109.44-29.44 108.42-29.44L108.42-29.44L101.18-29.44L101.18-12.35L101.18-12.35Q101.18-9.09 103.10-7.01L103.10-7.01L103.10-7.01Q105.02-4.93 108.03-4.93L108.03-4.93L109.76-4.93ZM121.09-32.51L121.09-32.51Q121.09-33.60 121.79-34.30L121.79-34.30L121.79-34.30Q122.50-35.01 123.58-35.01L123.58-35.01L123.58-35.01Q124.67-35.01 125.34-34.30L125.34-34.30L125.34-34.30Q126.02-33.60 126.02-32.51L126.02-32.51L126.02-2.50L126.02-2.50Q126.02-1.41 125.34-0.70L125.34-0.70L125.34-0.70Q124.67 0 123.58 0L123.58 0L123.58 0Q122.50 0 121.79-0.70L121.79-0.70L121.79-0.70Q121.09-1.41 121.09-2.50L121.09-2.50L121.09-32.51ZM123.58-48.64L123.58-48.64Q124.99-48.64 126.02-47.68L126.02-47.68L126.02-47.68Q127.04-46.72 127.04-45.18L127.04-45.18L127.04-45.18Q127.04-43.71 126.02-42.69L126.02-42.69L126.02-42.69Q124.99-41.66 123.52-41.66L123.52-41.66L123.52-41.66Q122.05-41.66 121.06-42.69L121.06-42.69L121.06-42.69Q120.06-43.71 120.06-45.18L120.06-45.18L120.06-45.18Q120.06-46.72 121.09-47.68L121.09-47.68L121.09-47.68Q122.11-48.64 123.58-48.64L123.58-48.64ZM175.42-35.39L175.42-35.39Q179.20-35.39 182.11-33.60L182.11-33.60L182.11-33.60Q185.02-31.81 186.66-28.51L186.66-28.51L186.66-28.51Q188.29-25.22 188.29-20.86L188.29-20.86L188.29-2.43L188.29-2.43Q188.29-1.34 187.62-0.67L187.62-0.67L187.62-0.67Q186.94 0 185.86 0L185.86 0L185.86 0Q184.77 0 184.06-0.67L184.06-0.67L184.06-0.67Q183.36-1.34 183.36-2.43L183.36-2.43L183.36-20.86L183.36-20.86Q183.36-25.41 181.02-28.06L181.02-28.06L181.02-28.06Q178.69-30.72 174.91-30.72L174.91-30.72L174.91-30.72Q170.88-30.72 168.38-28.03L168.38-28.03L168.38-28.03Q165.89-25.34 165.95-20.99L165.95-20.99L165.95-20.86L165.95-2.43L165.95-2.43Q165.95-1.34 165.28-0.67L165.28-0.67L165.28-0.67Q164.61 0 163.52 0L163.52 0L163.52 0Q162.43 0 161.73-0.67L161.73-0.67L161.73-0.67Q161.02-1.34 161.02-2.43L161.02-2.43L161.02-20.86L161.02-20.86Q161.02-25.41 158.69-28.06L158.69-28.06L158.69-28.06Q156.35-30.72 152.58-30.72L152.58-30.72L152.58-30.72Q148.61-30.72 146.05-28.10L146.05-28.10L146.05-28.10Q143.49-25.47 143.49-21.38L143.49-21.38L143.49-2.43L143.49-2.43Q143.49-1.34 142.82-0.67L142.82-0.67L142.82-0.67Q142.14 0 141.06 0L141.06 0L141.06 0Q139.97 0 139.26-0.67L139.26-0.67L139.26-0.67Q138.56-1.34 138.56-2.43L138.56-2.43L138.56-32.51L138.56-32.51Q138.56-33.60 139.26-34.30L139.26-34.30L139.26-34.30Q139.97-35.01 141.06-35.01L141.06-35.01L141.06-35.01Q142.14-35.01 142.82-34.30L142.82-34.30L142.82-34.30Q143.49-33.60 143.49-32.51L143.49-32.51L143.49-31.10L143.49-31.10Q145.28-33.15 147.74-34.27L147.74-34.27L147.74-34.27Q150.21-35.39 153.09-35.39L153.09-35.39L153.09-35.39Q156.61-35.39 159.42-33.79L159.42-33.79L159.42-33.79Q162.24-32.19 163.90-29.31L163.90-29.31L163.90-29.31Q165.76-32.19 168.74-33.79L168.74-33.79L168.74-33.79Q171.71-35.39 175.42-35.39L175.42-35.39ZM214.08-35.33L214.08-35.33Q218.82-35.33 222.46-33.12L222.46-33.12L222.46-33.12Q226.11-30.91 228.13-27.01L228.13-27.01L228.13-27.01Q230.14-23.10 230.14-18.11L230.14-18.11L230.14-18.11Q230.14-17.09 229.50-16.48L229.50-16.48L229.50-16.48Q228.86-15.87 227.84-15.87L227.84-15.87L201.98-15.87L201.98-15.87Q202.50-10.62 206.08-7.36L206.08-7.36L206.08-7.36Q209.66-4.10 215.04-4.10L215.04-4.10L215.04-4.10Q217.34-4.10 219.68-4.90L219.68-4.90L219.68-4.90Q222.02-5.70 223.42-6.91L223.42-6.91L223.42-6.91Q224.26-7.55 225.15-7.55L225.15-7.55L225.15-7.55Q225.86-7.55 226.56-7.04L226.56-7.04L226.56-7.04Q227.39-6.27 227.39-5.31L227.39-5.31L227.39-5.31Q227.39-4.48 226.69-3.84L226.69-3.84L226.69-3.84Q224.58-2.05 221.31-0.86L221.31-0.86L221.31-0.86Q218.05 0.32 215.04 0.32L215.04 0.32L215.04 0.32Q209.92 0.32 205.89-1.95L205.89-1.95L205.89-1.95Q201.86-4.22 199.58-8.29L199.58-8.29L199.58-8.29Q197.31-12.35 197.31-17.47L197.31-17.47L197.31-17.47Q197.31-22.66 199.46-26.72L199.46-26.72L199.46-26.72Q201.60-30.78 205.41-33.06L205.41-33.06L205.41-33.06Q209.22-35.33 214.08-35.33L214.08-35.33ZM214.08-30.91L214.08-30.91Q209.22-30.91 206.02-27.90L206.02-27.90L206.02-27.90Q202.82-24.90 202.11-19.97L202.11-19.97L225.54-19.97L225.54-19.97Q225.02-24.90 221.95-27.90L221.95-27.90L221.95-27.90Q218.88-30.91 214.08-30.91L214.08-30.91ZM286.66-49.98L286.66-49.98Q287.68-49.98 288.38-49.28L288.38-49.28L288.38-49.28Q289.09-48.58 289.09-47.49L289.09-47.49L289.09-2.50L289.09-2.50Q289.09-1.47 288.38-0.74L288.38-0.74L288.38-0.74Q287.68 0 286.66 0L286.66 0L286.66 0Q285.57 0 284.83-0.74L284.83-0.74L284.83-0.74Q284.10-1.47 284.10-2.50L284.10-2.50L284.10-38.72L266.30-2.37L266.30-2.37Q265.54-1.15 264.13-1.15L264.13-1.15L264.13-1.15Q262.53-1.15 261.82-2.69L261.82-2.69L244.10-38.14L244.10-2.50L244.10-2.50Q244.10-1.47 243.39-0.74L243.39-0.74L243.39-0.74Q242.69 0 241.60 0L241.60 0L241.60 0Q240.58 0 239.84-0.74L239.84-0.74L239.84-0.74Q239.10-1.47 239.10-2.50L239.10-2.50L239.10-47.49L239.10-47.49Q239.10-48.58 239.84-49.28L239.84-49.28L239.84-49.28Q240.58-49.98 241.60-49.98L241.60-49.98L241.60-49.98Q243.07-49.98 243.84-48.70L243.84-48.70L264.32-8L284.42-48.70L284.42-48.70Q285.18-49.98 286.66-49.98L286.66-49.98ZM317.18-35.33L317.18-35.33Q322.24-35.33 326.27-33.02L326.27-33.02L326.27-33.02Q330.30-30.72 332.64-26.62L332.64-26.62L332.64-26.62Q334.98-22.53 334.98-17.47L334.98-17.47L334.98-17.47Q334.98-12.42 332.67-8.35L332.67-8.35L332.67-8.35Q330.37-4.29 326.30-1.98L326.30-1.98L326.30-1.98Q322.24 0.32 317.18 0.32L317.18 0.32L317.18 0.32Q312.13 0.32 308.06-1.98L308.06-1.98L308.06-1.98Q304-4.29 301.70-8.35L301.70-8.35L301.70-8.35Q299.39-12.42 299.39-17.47L299.39-17.47L299.39-17.47Q299.39-22.53 301.70-26.62L301.70-26.62L301.70-26.62Q304-30.72 308.06-33.02L308.06-33.02L308.06-33.02Q312.13-35.33 317.18-35.33L317.18-35.33ZM317.18-30.85L317.18-30.85Q313.54-30.85 310.56-29.12L310.56-29.12L310.56-29.12Q307.58-27.39 305.89-24.35L305.89-24.35L305.89-24.35Q304.19-21.31 304.19-17.47L304.19-17.47L304.19-17.47Q304.19-13.70 305.89-10.66L305.89-10.66L305.89-10.66Q307.58-7.62 310.56-5.89L310.56-5.89L310.56-5.89Q313.54-4.16 317.18-4.16L317.18-4.16L317.18-4.16Q320.90-4.16 323.84-5.89L323.84-5.89L323.84-5.89Q326.78-7.62 328.45-10.66L328.45-10.66L328.45-10.66Q330.11-13.70 330.11-17.47L330.11-17.47L330.11-17.47Q330.11-21.31 328.45-24.35L328.45-24.35L328.45-24.35Q326.78-27.39 323.84-29.12L323.84-29.12L323.84-29.12Q320.90-30.85 317.18-30.85L317.18-30.85ZM361.15-35.39L361.15-35.39Q365.70-35.39 369.31-33.47L369.31-33.47L369.31-33.47Q372.93-31.55 374.98-27.87L374.98-27.87L374.98-27.87Q377.02-24.19 377.02-19.07L377.02-19.07L377.02-2.43L377.02-2.43Q377.02-1.41 376.32-0.70L376.32-0.70L376.32-0.70Q375.62 0 374.59 0L374.59 0L374.59 0Q373.50 0 372.80-0.70L372.80-0.70L372.80-0.70Q372.10-1.41 372.10-2.43L372.10-2.43L372.10-19.07L372.10-19.07Q372.10-24.77 368.93-27.74L368.93-27.74L368.93-27.74Q365.76-30.72 360.64-30.72L360.64-30.72L360.64-30.72Q357.50-30.72 354.98-29.50L354.98-29.50L354.98-29.50Q352.45-28.29 350.98-26.14L350.98-26.14L350.98-26.14Q349.50-24 349.50-21.38L349.50-21.38L349.50-2.43L349.50-2.43Q349.50-1.34 348.83-0.67L348.83-0.67L348.83-0.67Q348.16 0 347.07 0L347.07 0L347.07 0Q345.98 0 345.28-0.67L345.28-0.67L345.28-0.67Q344.58-1.34 344.58-2.43L344.58-2.43L344.58-32.51L344.58-32.51Q344.58-33.60 345.28-34.30L345.28-34.30L345.28-34.30Q345.98-35.01 347.07-35.01L347.07-35.01L347.07-35.01Q348.16-35.01 348.83-34.30L348.83-34.30L348.83-34.30Q349.50-33.60 349.50-32.51L349.50-32.51L349.50-30.34L349.50-30.34Q351.62-32.70 354.62-34.05L354.62-34.05L354.62-34.05Q357.63-35.39 361.15-35.39L361.15-35.39Z" fill="#ccc"></path></g></g><style>text {
  font-size: 64px;
  font-family: Arial Black;
  dominant-baseline: central;
  text-anchor: middle;
}</style></svg>